<svg width="35" height="35" viewBox="0 0 35 35" fill="none" xmlns="http://www.w3.org/2000/svg">
<rect width="35" height="35" rx="3" fill="#4B4B4B"/>
<path fill-rule="evenodd" clip-rule="evenodd" d="M17.1575 11.2727C17.244 11.359 17.3126 11.4614 17.3594 11.5742C17.4062 11.687 17.4303 11.8079 17.4303 11.93C17.4303 12.0521 17.4062 12.1731 17.3594 12.2858C17.3126 12.3986 17.244 12.5011 17.1575 12.5873L12.2427 17.5002L17.1575 22.4132C17.2438 22.4995 17.3123 22.602 17.359 22.7147C17.4057 22.8275 17.4298 22.9484 17.4298 23.0705C17.4298 23.1925 17.4057 23.3134 17.359 23.4262C17.3123 23.539 17.2438 23.6414 17.1575 23.7277C17.0712 23.8141 16.9687 23.8825 16.856 23.9292C16.7432 23.976 16.6223 24 16.5002 24C16.3782 24 16.2573 23.976 16.1445 23.9292C16.0317 23.8825 15.9293 23.8141 15.843 23.7277L10.2727 18.1575C10.1863 18.0713 10.1177 17.9688 10.0709 17.8561C10.0241 17.7433 10 17.6224 10 17.5002C10 17.3781 10.0241 17.2572 10.0709 17.1444C10.1177 17.0316 10.1863 16.9292 10.2727 16.843L15.843 11.2727C15.9292 11.1863 16.0316 11.1177 16.1444 11.0709C16.2572 11.0241 16.3781 11 16.5002 11C16.6224 11 16.7433 11.0241 16.8561 11.0709C16.9688 11.1177 17.0713 11.1863 17.1575 11.2727Z" fill="white"/>
<path fill-rule="evenodd" clip-rule="evenodd" d="M10.9301 17.5001C10.9301 17.2539 11.0279 17.0178 11.202 16.8437C11.3761 16.6696 11.6122 16.5718 11.8584 16.5718H23.9272C24.1734 16.5718 24.4096 16.6696 24.5837 16.8437C24.7578 17.0178 24.8556 17.2539 24.8556 17.5001C24.8556 17.7464 24.7578 17.9825 24.5837 18.1566C24.4096 18.3307 24.1734 18.4285 23.9272 18.4285H11.8584C11.6122 18.4285 11.3761 18.3307 11.202 18.1566C11.0279 17.9825 10.9301 17.7464 10.9301 17.5001Z" fill="white"/>
</svg>
